<svg id="visual" viewBox="0 0 1170 2532" width="1170" height="2532" xmlns="http://www.w3.org/2000/svg" xmlns:xlink="http://www.w3.org/1999/xlink" version="1.1"><rect width="1170" height="2532" fill="#a5a5a5"></rect><g><g transform="translate(211 2226)"><path d="M0 -208L180.1 -104L180.1 104L0 208L-180.1 104L-180.1 -104Z" fill="none" stroke="#00ebc7" stroke-width="6"></path></g><g transform="translate(607 2524)"><path d="M0 -185L160.2 -92.5L160.2 92.5L0 185L-160.2 92.5L-160.2 -92.5Z" fill="none" stroke="#00ebc7" stroke-width="6"></path></g><g transform="translate(858 541)"><path d="M0 -206L178.4 -103L178.4 103L0 206L-178.4 103L-178.4 -103Z" fill="none" stroke="#00ebc7" stroke-width="6"></path></g><g transform="translate(492 1638)"><path d="M0 -59L51.1 -29.5L51.1 29.5L0 59L-51.1 29.5L-51.1 -29.5Z" fill="none" stroke="#00ebc7" stroke-width="6"></path></g><g transform="translate(419 141)"><path d="M0 -79L68.4 -39.5L68.4 39.5L0 79L-68.4 39.5L-68.4 -39.5Z" fill="none" stroke="#00ebc7" stroke-width="6"></path></g><g transform="translate(955 1616)"><path d="M0 -140L121.2 -70L121.2 70L0 140L-121.2 70L-121.2 -70Z" fill="none" stroke="#00ebc7" stroke-width="6"></path></g><g transform="translate(406 943)"><path d="M0 -52L45 -26L45 26L0 52L-45 26L-45 -26Z" stroke="#00ebc7" fill="none" stroke-width="6"></path></g><g transform="translate(1044 39)"><path d="M0 -123L106.5 -61.5L106.5 61.5L0 123L-106.5 61.5L-106.5 -61.5Z" stroke="#00ebc7" fill="none" stroke-width="6"></path></g><g transform="translate(718 1243)"><path d="M0 -121L104.8 -60.5L104.8 60.5L0 121L-104.8 60.5L-104.8 -60.5Z" stroke="#00ebc7" fill="none" stroke-width="6"></path></g><g transform="translate(1083 2261)"><path d="M0 -182L157.6 -91L157.6 91L0 182L-157.6 91L-157.6 -91Z" stroke="#00ebc7" fill="none" stroke-width="6"></path></g><g transform="translate(92 1385)"><path d="M0 -79L68.4 -39.5L68.4 39.5L0 79L-68.4 39.5L-68.4 -39.5Z" stroke="#00ebc7" fill="none" stroke-width="6"></path></g><g transform="translate(39 318)"><path d="M0 -154L133.4 -77L133.4 77L0 154L-133.4 77L-133.4 -77Z" stroke="#00ebc7" fill="none" stroke-width="6"></path></g><g transform="translate(2 784)"><path d="M0 -192L166.3 -96L166.3 96L0 192L-166.3 96L-166.3 -96Z" stroke="#00ebc7" fill="none" stroke-width="6"></path></g><g transform="translate(11 1827)"><path d="M0 -124L107.4 -62L107.4 62L0 124L-107.4 62L-107.4 -62Z" stroke="#00ebc7" fill="none" stroke-width="6"></path></g><g transform="translate(1119 1079)"><path d="M0 -149L129 -74.5L129 74.5L0 149L-129 74.5L-129 -74.5Z" stroke="#00ebc7" fill="none" stroke-width="6"></path></g><g transform="translate(682 2058)"><path d="M0 -57L49.4 -28.5L49.4 28.5L0 57L-49.4 28.5L-49.4 -28.5Z" stroke="#00ebc7" fill="none" stroke-width="6"></path></g></g></svg>